<svg id="Réteg_1" data-name="Réteg 1" xmlns="http://www.w3.org/2000/svg" xmlns:xlink="http://www.w3.org/1999/xlink" viewBox="0 0 128 128"><defs><style>.cls-1{fill:none;}.cls-2{opacity:0.54;}.cls-3{clip-path:url(#clip-path);}.cls-4{opacity:0.5;}.cls-5{opacity:0.3;}.cls-6{fill:#fff;}.cls-7{fill:url(#linear-gradient);}</style><clipPath id="clip-path"><rect class="cls-1" y="-282.75" width="772" height="250"/></clipPath><linearGradient id="linear-gradient" x1="8.6" y1="8.53" x2="119.54" y2="119.47" gradientUnits="userSpaceOnUse"><stop offset="0" stop-color="#08baa0"/><stop offset="1" stop-color="#13b8c7"/></linearGradient></defs><title>icon</title><g class="cls-2"><g class="cls-3"><g class="cls-4"><g id="triangle36" class="cls-5"><path class="cls-6" d="M99.53,25l-21-46.33a.42.42,0,0,1,.06-.45.44.44,0,0,1,.43-.14L166.54-1.46a.41.41,0,0,1,.32.39.41.41,0,0,1-.26.43L100.08,25.19a.43.43,0,0,1-.52-.17ZM79.67-20.91l20.47,45.15L165-.94Z"/></g><g id="triangle36-2" data-name="triangle36" class="cls-5"><path class="cls-6" d="M103.21,38.09,99.5,24.9a.45.45,0,0,1,.27-.52L166.28-1.44a.44.44,0,0,1,.54.2.43.43,0,0,1-.15.56l-62.82,39a.43.43,0,0,1-.38,0,.39.39,0,0,1-.21-.17A.43.43,0,0,1,103.21,38.09Zm-2.76-13,3.43,12.26L162.28,1Z"/></g><g id="triangle36-3" data-name="triangle36" class="cls-5"><path class="cls-6" d="M103.26,38.2a.41.41,0,0,1,.11-.6l.14-.06,62.7-38.95a.45.45,0,0,1,.46,0,.46.46,0,0,1,.2.4l-4.61,52a.43.43,0,0,1-.18.3.4.4,0,0,1-.35.08l-58.2-13a.45.45,0,0,1-.27-.19S103.25,38.2,103.26,38.2ZM165.93-.22l-61.19,38,56.7,12.63Z"/></g></g></g></g><path class="cls-7" d="M128,29A29,29,0,0,0,99,0H29.16a29,29,0,0,0-29,29c0,.17,0,.33,0,.5H0v69H.15c0,.17,0,.33,0,.5a29,29,0,0,0,29,29H99a29,29,0,0,0,29-29c0-.17,0-.33,0-.5h0v-69h0C128,29.34,128,29.18,128,29Z"/><path class="cls-6" d="M85.81,52.9A3.74,3.74,0,0,0,84.49,58,25.93,25.93,0,0,1,55.65,96.29h0A40.21,40.21,0,0,1,38.7,87.24a3.74,3.74,0,1,0-5,5.58,48.34,48.34,0,0,0,20.07,10.72h0a33.38,33.38,0,0,0,40.71-24,33.12,33.12,0,0,0-3.56-25.32A3.74,3.74,0,0,0,85.81,52.9ZM40.29,75.63A3.74,3.74,0,0,0,43.51,70,25.94,25.94,0,0,1,72.35,31.71h0a40.5,40.5,0,0,1,16,8.25,3.74,3.74,0,0,0,4.82-5.73,47.8,47.8,0,0,0-19-9.76h0A33.42,33.42,0,0,0,37.06,73.78,3.74,3.74,0,0,0,40.29,75.63ZM48,85.07a33.3,33.3,0,0,0,9.5,4.1h0a18.58,18.58,0,0,0,9.29-36,3.74,3.74,0,0,0-1.87,7.24,11.1,11.1,0,0,1-5.55,21.49h0A26.05,26.05,0,0,1,52,78.75a3.74,3.74,0,1,0-4,6.32ZM60.23,47.26a11,11,0,0,1,8.41-1.18h0A25.85,25.85,0,0,1,75,48.63a3.74,3.74,0,0,0,3.69-6.51,33.65,33.65,0,0,0-8.13-3.29h0a18.58,18.58,0,1,0-9.3,36,3.74,3.74,0,0,0,1.87-7.25,11.09,11.09,0,0,1-2.85-20.3Z"/></svg>